<svg width="16" height="16" viewBox="0 0 16 16" fill="none" xmlns="http://www.w3.org/2000/svg">
<g clip-path="url(#clip0_16_3)">
<path d="M4.15798 12.025C4.22032 12.0458 4.27794 12.0787 4.32757 12.1217C4.37719 12.1648 4.41784 12.2172 4.44718 12.276C4.47653 12.3348 4.494 12.3988 4.4986 12.4643C4.5032 12.5299 4.49484 12.5957 4.47398 12.658L3.97398 14.158C3.92846 14.2791 3.83781 14.3778 3.72106 14.4334C3.60432 14.489 3.47056 14.4973 3.34787 14.4564C3.22518 14.4155 3.12311 14.3286 3.06309 14.2141C3.00307 14.0995 2.98977 13.9662 3.02598 13.842L3.52598 12.342C3.56777 12.2162 3.65782 12.1121 3.77634 12.0526C3.89486 11.9932 4.03214 11.9833 4.15798 12.025ZM10.158 12.025C10.2203 12.0458 10.2779 12.0787 10.3276 12.1217C10.3772 12.1648 10.4178 12.2172 10.4472 12.276C10.4765 12.3348 10.494 12.3988 10.4986 12.4643C10.5032 12.5299 10.4948 12.5957 10.474 12.658L9.97398 14.158C9.92846 14.2791 9.83781 14.3778 9.72106 14.4334C9.60432 14.489 9.47056 14.4973 9.34787 14.4564C9.22518 14.4155 9.12311 14.3286 9.06309 14.2141C9.00307 14.0995 8.98977 13.9662 9.02598 13.842L9.52598 12.342C9.56777 12.2162 9.65782 12.1121 9.77634 12.0526C9.89486 11.9932 10.0321 11.9833 10.158 12.025ZM6.65798 13.525C6.72032 13.5458 6.77794 13.5787 6.82757 13.6217C6.87719 13.6648 6.91784 13.7172 6.94718 13.776C6.97653 13.8348 6.994 13.8988 6.9986 13.9643C7.0032 14.0299 6.99484 14.0957 6.97398 14.158L6.47398 15.658C6.42846 15.7791 6.33781 15.8778 6.22106 15.9334C6.10432 15.989 5.97056 15.9973 5.84787 15.9564C5.72518 15.9155 5.62311 15.8286 5.56309 15.7141C5.50307 15.5995 5.48977 15.4662 5.52598 15.342L6.02598 13.842C6.06777 13.7162 6.15782 13.6121 6.27634 13.5526C6.39486 13.4932 6.53214 13.4833 6.65798 13.525ZM12.658 13.525C12.7203 13.5458 12.7779 13.5787 12.8276 13.6217C12.8772 13.6648 12.9178 13.7172 12.9472 13.776C12.9765 13.8348 12.994 13.8988 12.9986 13.9643C13.0032 14.0299 12.9948 14.0957 12.974 14.158L12.474 15.658C12.4552 15.7226 12.4235 15.7827 12.3809 15.8347C12.3383 15.8868 12.2856 15.9297 12.226 15.9609C12.1665 15.9921 12.1012 16.011 12.0342 16.0164C11.9671 16.0218 11.8997 16.0136 11.8359 15.9924C11.7721 15.9711 11.7132 15.9372 11.6628 15.8926C11.6124 15.8481 11.5715 15.7938 11.5426 15.7331C11.5137 15.6724 11.4973 15.6064 11.4944 15.5392C11.4916 15.4721 11.5023 15.405 11.526 15.342L12.026 13.842C12.0678 13.7162 12.1578 13.6121 12.2763 13.5526C12.3949 13.4932 12.5321 13.4833 12.658 13.525ZM13.405 5.02701C13.1973 3.98018 12.6602 3.02722 11.8722 2.30749C11.0842 1.58776 10.0866 1.139 9.02523 1.02682C7.9639 0.914646 6.89452 1.14494 5.97345 1.68402C5.05237 2.22311 4.32791 3.04272 3.90598 4.02301C3.43282 3.96851 2.95351 4.01115 2.4974 4.14832C2.04129 4.2855 1.61798 4.51432 1.25338 4.82079C0.888782 5.12726 0.590571 5.50492 0.377005 5.93064C0.163439 6.35637 0.0390124 6.82121 0.0113432 7.29669C-0.0163259 7.77218 0.0533446 8.24831 0.216089 8.69594C0.378834 9.14356 0.631228 9.55326 0.957818 9.89995C1.28441 10.2466 1.67832 10.523 2.11544 10.7122C2.55256 10.9013 3.02369 10.9993 3.49998 11H13C13.7611 11.0009 14.4941 10.7124 15.0505 10.1931C15.6069 9.67374 15.9451 8.96233 15.9965 8.20297C16.048 7.4436 15.809 6.69305 15.3278 6.10335C14.8466 5.51365 14.1592 5.12889 13.405 5.02701ZM8.49998 2.00001C9.48394 1.99981 10.4335 2.36228 11.167 3.01813C11.9005 3.67397 12.3665 4.57717 12.476 5.55501C12.4896 5.67787 12.5482 5.79134 12.6405 5.87352C12.7329 5.9557 12.8524 6.00076 12.976 6.00001H13C13.5304 6.00001 14.0391 6.21073 14.4142 6.5858C14.7893 6.96087 15 7.46958 15 8.00001C15 8.53045 14.7893 9.03915 14.4142 9.41423C14.0391 9.7893 13.5304 10 13 10H3.49998C3.14606 9.99984 2.7962 9.92452 2.47356 9.77903C2.15092 9.63354 1.86285 9.42121 1.6284 9.15607C1.39395 8.89093 1.21847 8.57904 1.11357 8.24101C1.00866 7.90299 0.976727 7.54655 1.01987 7.19526C1.06302 6.84397 1.18026 6.50585 1.36384 6.20326C1.54742 5.90067 1.79316 5.64051 2.0848 5.43998C2.37644 5.23946 2.70733 5.10314 3.05559 5.04005C3.40385 4.97696 3.76153 4.98854 4.10498 5.07401C4.22751 5.10458 4.35707 5.08764 4.46762 5.02661C4.57818 4.96558 4.66155 4.86498 4.70098 4.74501C4.96526 3.94619 5.4746 3.25098 6.1566 2.75819C6.8386 2.26541 7.65858 2.00011 8.49998 2.00001Z" fill="white"/>
</g>
<defs>
<clipPath id="clip0_16_3">
<rect width="16" height="16" fill="white"/>
</clipPath>
</defs>
</svg>
