<svg width="16" height="16" viewBox="0 0 16 16" fill="none" xmlns="http://www.w3.org/2000/svg">
<path d="M9 12.5C8.99986 12.775 8.92414 13.0446 8.78111 13.2794C8.63809 13.5143 8.43327 13.7053 8.18903 13.8316C7.94479 13.9579 7.67053 14.0146 7.39623 13.9956C7.12192 13.9766 6.85812 13.8825 6.63365 13.7237C6.40919 13.5649 6.23269 13.3475 6.12345 13.0951C6.01422 12.8428 5.97644 12.5653 6.01425 12.2929C6.05206 12.0206 6.16401 11.7639 6.33786 11.5508C6.5117 11.3378 6.74076 11.1767 7 11.085V6.5C7 6.36739 7.05268 6.24021 7.14645 6.14645C7.24022 6.05268 7.36739 6 7.5 6C7.63261 6 7.75979 6.05268 7.85355 6.14645C7.94732 6.24021 8 6.36739 8 6.5V11.085C8.29258 11.1884 8.54587 11.3801 8.72497 11.6335C8.90407 11.8869 9.00016 12.1897 9 12.5Z" fill="white"/>
<path d="M5 2.5C5 1.83696 5.26339 1.20107 5.73223 0.732233C6.20108 0.263392 6.83696 0 7.5 0C8.16304 0 8.79893 0.263392 9.26777 0.732233C9.73661 1.20107 10 1.83696 10 2.5V10.05C10.4823 10.5423 10.8086 11.166 10.9379 11.843C11.0672 12.5199 10.9937 13.22 10.7267 13.8554C10.4597 14.4907 10.0111 15.0332 9.43707 15.4146C8.86305 15.796 8.18919 15.9995 7.5 15.9995C6.81081 15.9995 6.13695 15.796 5.56294 15.4146C4.98892 15.0332 4.54029 14.4907 4.2733 13.8554C4.00631 13.22 3.93285 12.5199 4.06213 11.843C4.19141 11.166 4.51767 10.5423 5 10.05V2.5ZM7.5 1C7.10218 1 6.72065 1.15804 6.43934 1.43934C6.15804 1.72064 6 2.10218 6 2.5V10.487L5.833 10.637C5.45557 10.9745 5.18953 11.4187 5.07007 11.9107C4.95062 12.4028 4.98338 12.9195 5.16403 13.3925C5.34468 13.8655 5.6647 14.2725 6.08174 14.5597C6.49877 14.8468 6.99317 15.0005 7.4995 15.0005C8.00583 15.0005 8.50023 14.8468 8.91727 14.5597C9.33431 14.2725 9.65432 13.8655 9.83497 13.3925C10.0156 12.9195 10.0484 12.4028 9.92893 11.9107C9.80947 11.4187 9.54343 10.9745 9.166 10.637L9 10.487V2.5C9 2.10218 8.84197 1.72064 8.56066 1.43934C8.27936 1.15804 7.89783 1 7.5 1Z" fill="white"/>
</svg>
